HIERARCHY
ROOT root
{
	OFFSET 0.000000 0.000000 0.000000
	CHANNELS 6 Xposition Yposition Zposition Zrotation Yrotation Xrotation
	JOINT lhip
	{
		OFFSET 0.058581 -0.082280 -0.017664
		CHANNELS 3 Zrotation Yrotation Xrotation
		JOINT lknee
		{
			OFFSET 0.043451 -0.386469 0.008037
			CHANNELS 3 Zrotation Yrotation Xrotation
			JOINT lankle
			{
				OFFSET -0.014790 -0.426874 -0.037428
				CHANNELS 3 Zrotation Yrotation Xrotation
				JOINT ltoe
				{
					OFFSET 0.041054 -0.060286 0.122042
					CHANNELS 3 Zrotation Yrotation Xrotation
					End Site
					{
						OFFSET 0.000000 0.000000 0.000000
					}
				}
			}
		}
	}
	JOINT rhip
	{
		OFFSET -0.060310 -0.090513 -0.013543
		CHANNELS 3 Zrotation Yrotation Xrotation
		JOINT rknee
		{
			OFFSET -0.043257 -0.383688 -0.004843
			CHANNELS 3 Zrotation Yrotation Xrotation
			JOINT rankle
			{
				OFFSET 0.019056 -0.420046 -0.034562
				CHANNELS 3 Zrotation Yrotation Xrotation
				JOINT rtoe
				{
					OFFSET -0.034840 -0.062106 0.130323
					CHANNELS 3 Zrotation Yrotation Xrotation
					End Site
					{
						OFFSET 0.000000 0.000000 0.000000
					}
				}
			}
		}
	}
	JOINT lowerback
	{
		OFFSET 0.004439 0.124404 -0.038385
		CHANNELS 3 Zrotation Yrotation Xrotation
		JOINT upperback
		{
			OFFSET 0.004488 0.137956 0.026820
			CHANNELS 3 Zrotation Yrotation Xrotation
			JOINT chest
			{
				OFFSET -0.002265 0.056032 0.002855
				CHANNELS 3 Zrotation Yrotation Xrotation
				JOINT lowerneck
				{
					OFFSET -0.013390 0.211636 -0.033468
					CHANNELS 3 Zrotation Yrotation Xrotation
					JOINT upperneck
					{
						OFFSET 0.010113 0.088937 0.050410
						CHANNELS 3 Zrotation Yrotation Xrotation
						End Site
						{
							OFFSET 0.000000 0.000000 0.000000
						}
					}
				}
				JOINT lclavicle
				{
					OFFSET 0.071702 0.114000 -0.018898
					CHANNELS 3 Zrotation Yrotation Xrotation
					JOINT lshoulder
					{
						OFFSET 0.122921 0.045205 -0.019046
						CHANNELS 3 Zrotation Yrotation Xrotation
						JOINT lelbow
						{
							OFFSET 0.255332 -0.015649 -0.022946
							CHANNELS 3 Zrotation Yrotation Xrotation
							JOINT lwrist
							{
								OFFSET 0.265709 0.012698 -0.007375
								CHANNELS 3 Zrotation Yrotation Xrotation
								End Site
								{
									OFFSET 0.000000 0.000000 0.000000
								}
							}
						}
					}
				}
				JOINT rclavicle
				{
					OFFSET -0.082954 0.112472 -0.023707
					CHANNELS 3 Zrotation Yrotation Xrotation
					JOINT rshoulder
					{
						OFFSET -0.113228 0.046853 -0.008472
						CHANNELS 3 Zrotation Yrotation Xrotation
						JOINT relbow
						{
							OFFSET -0.260127 -0.014369 -0.031269
							CHANNELS 3 Zrotation Yrotation Xrotation
							JOINT rwrist
							{
								OFFSET -0.269108 0.006794 -0.006027
								CHANNELS 3 Zrotation Yrotation Xrotation
								End Site
								{
									OFFSET 0.000000 0.000000 0.000000
								}
							}
						}
					}
				}
			}
		}
	}
}
MOTION
Frames: 16
Frame Time: 0.033333
0.109177 0.209827 0.959186 90.317367 2.352985 91.047639 14.305451 6.575345 -13.874832 -14.261797 -2.012708 36.373075 1.728758 8.101304 -24.723545 0.000000 -0.000000 0.000000 -3.847594 -7.635462 -19.359072 12.923622 -0.499710 39.770429 3.066756 -9.759596 -21.093727 0.000000 -0.000000 0.000000 -3.569597 -2.463148 7.478706 7.045848 -5.927491 -2.333207 1.615653 -4.853095 0.210319 4.055686 4.515014 -4.232633 -5.514219 -0.004205 4.774265 -11.808206 1.917517 3.694475 -27.690527 5.249608 28.667027 -91.332589 -47.182136 111.212775 -5.680563 -25.343086 -31.167513 10.038269 -0.166437 -11.711558 -14.668967 10.835765 -22.302886 -41.916591 32.244732 -41.943931 13.813658 -4.777116 26.711420 
0.109416 0.211257 0.962469 90.777582 2.548873 91.500369 14.270803 6.400453 -14.149743 -13.453831 -1.737250 35.604095 1.427866 7.178207 -24.174559 0.000000 -0.000000 0.000000 -3.654727 -7.412379 -19.222137 12.447873 -1.092517 38.597827 3.064406 -9.440967 -20.298827 0.000000 -0.000000 0.000000 -4.063747 -1.980488 6.262017 8.409378 -6.609880 -2.072845 2.880988 -5.497406 0.072535 3.259040 5.119840 -3.339431 -6.893124 -0.288753 4.391995 -8.531039 0.946973 5.258160 -35.069116 4.974963 27.458735 -85.361312 -47.024547 107.238377 -5.662563 -24.791060 -31.955908 8.527595 -0.750153 -13.091743 -12.458912 13.518272 -23.285384 -42.076894 32.705951 -39.435240 14.672074 -5.600396 26.097191 
0.109859 0.214108 0.966687 91.642695 2.696616 91.776794 14.048397 6.085841 -14.169883 -12.661306 -1.693103 34.660226 1.197027 6.188731 -23.515241 0.000000 -0.000000 0.000000 -3.706699 -7.538025 -18.630065 11.913764 -1.878732 37.165687 3.096880 -8.853284 -19.542982 0.000000 -0.000000 0.000000 -4.232636 -1.766901 5.426729 9.774590 -7.602319 -1.903784 4.085139 -5.915426 -0.095166 1.992973 5.930816 -2.738439 -8.239973 -1.054020 4.241750 -5.573752 -0.409275 6.137844 -41.664198 4.763160 26.971161 -79.960351 -46.582358 103.305921 -5.415925 -24.224365 -32.665363 7.141417 -1.342458 -14.104014 -10.356350 15.638903 -24.197199 -42.713711 33.464206 -37.604933 15.795772 -6.324383 25.141930 
0.110527 0.217501 0.971468 92.586403 2.603072 91.858876 13.521563 5.683229 -13.702006 -12.071116 -2.027376 33.229517 0.999539 5.568013 -22.747392 0.000000 -0.000000 0.000000 -3.884628 -7.538489 -17.701676 11.181240 -2.359917 35.561711 3.378247 -8.720310 -18.727297 0.000000 -0.000000 0.000000 -4.117450 -1.723664 4.865717 10.683781 -8.405872 -1.905734 4.790149 -6.060857 -0.152825 0.912473 6.406398 -2.073913 -8.909884 -1.801668 3.870955 -3.688702 -1.728405 6.404808 -45.519877 4.039104 27.241975 -76.550815 -45.691961 100.124340 -4.635649 -23.951066 -33.798990 6.489876 -1.682270 -14.816961 -8.727933 16.644677 -23.988778 -43.660575 33.976950 -36.737011 15.972151 -6.646437 25.106817 
0.111621 0.220948 0.976257 93.286948 2.314343 92.142550 12.863644 5.181762 -13.226846 -11.632113 -2.319459 31.574275 0.531984 5.166001 -21.781482 0.000000 -0.000000 0.000000 -4.135678 -7.488468 -16.981626 10.440689 -2.492522 33.907189 3.714213 -8.795742 -17.894488 0.000000 -0.000000 0.000000 -3.957154 -1.663759 3.983055 11.215769 -8.852350 -2.000118 5.100856 -6.164317 -0.117741 0.327787 6.442756 -1.362395 -9.390374 -2.290360 3.822521 -2.724494 -2.553150 6.700782 -47.702185 3.073478 27.634014 -74.197150 -44.854615 97.676712 -4.130351 -23.892421 -34.474491 6.273382 -1.878947 -15.007956 -7.698539 16.947582 -23.476569 -44.177558 33.877339 -36.592459 16.255376 -6.232381 24.158044 
0.112755 0.223961 0.981089 93.855443 2.097222 92.519410 12.350016 4.771613 -12.712320 -11.239192 -2.500462 29.695192 0.216368 4.696459 -20.751291 0.000000 -0.000000 0.000000 -4.286298 -7.300433 -16.287947 9.748233 -2.593127 32.081616 4.136704 -8.916032 -16.946772 0.000000 -0.000000 0.000000 -3.691078 -1.672251 2.996139 11.605622 -9.087362 -1.927948 5.259968 -6.283471 -0.218216 -0.085584 6.381529 -0.857658 -9.766541 -2.626675 3.944288 -2.498724 -3.094740 6.898361 -48.868959 2.361198 27.994765 -72.603019 -44.501241 95.901263 -4.272727 -24.159450 -34.590981 6.492338 -2.014641 -15.057487 -7.519834 17.037135 -23.165243 -44.167861 33.846012 -36.163416 16.294641 -6.095285 23.880271 
0.114363 0.226494 0.985939 94.316645 1.833475 92.695464 11.743481 4.350757 -11.806640 -10.793881 -2.843296 27.583099 -0.114262 4.582383 -19.685496 0.000000 -0.000000 0.000000 -4.428324 -7.195331 -15.288901 9.062701 -2.502413 30.136962 4.566411 -9.094850 -15.932980 0.000000 -0.000000 0.000000 -3.616724 -1.703147 2.318898 11.847078 -9.241790 -2.055271 5.336929 -6.240097 -0.139177 -0.344473 6.187736 -0.244657 -9.907020 -2.846972 3.910890 -2.439377 -3.090833 7.041747 -49.213680 1.416071 28.252362 -72.070438 -44.106431 95.395712 -4.751830 -24.349361 -34.433210 6.790379 -2.300082 -15.053254 -7.559442 17.208433 -22.928515 -44.143192 33.601612 -35.853716 16.658030 -5.981531 23.475034 
0.115808 0.228351 0.990267 94.753606 1.518094 92.726347 11.004206 3.987083 -10.862671 -10.189655 -3.329287 25.653506 -0.419519 4.622081 -18.709240 0.000000 -0.000000 0.000000 -4.505868 -7.147784 -14.242314 8.287982 -2.310532 28.350079 5.002182 -9.389758 -15.119325 0.000000 -0.000000 0.000000 -3.707976 -1.664189 1.552499 11.866203 -9.488065 -1.630293 5.274632 -6.221461 -0.052122 -0.437096 6.040139 0.049736 -9.869655 -3.233483 3.892916 -2.769299 -3.158280 6.999791 -48.417445 0.758319 28.733828 -72.749811 -44.295423 95.802298 -4.719398 -24.310939 -34.272389 7.431307 -2.270360 -14.982769 -8.104743 16.948885 -22.583181 -44.312883 33.418678 -36.297828 16.058355 -6.275360 23.300129 
0.117739 0.229387 0.994220 95.026349 1.190078 92.491502 10.242366 3.791444 -9.556737 -9.614500 -4.057369 23.693651 -0.680370 4.872530 -17.774119 0.000000 -0.000000 0.000000 -4.590183 -7.052565 -12.849472 7.633958 -1.897043 26.470544 5.365454 -9.816889 -14.247950 0.000000 -0.000000 0.000000 -3.615919 -1.761618 1.307776 11.404819 -9.571680 -1.314278 4.954513 -6.196755 -0.066209 -0.459184 5.741704 0.001027 -9.488628 -3.234713 4.069405 -3.473129 -3.176176 6.847082 -46.639493 0.730886 29.274052 -74.324398 -44.681554 96.856294 -4.659977 -24.463830 -33.912169 7.969270 -1.994547 -14.894372 -8.572385 16.361106 -22.157295 -44.256054 33.204773 -36.973912 16.355788 -6.107109 23.671497 
0.119074 0.229630 0.997166 95.333805 0.989850 92.293761 9.723227 3.673355 -8.529247 -9.127358 -4.738111 22.188740 -0.918268 5.125256 -17.100423 0.000000 -0.000000 0.000000 -4.553279 -7.009316 -11.626145 7.157699 -1.489456 24.810254 5.636847 -10.350240 -13.497876 0.000000 -0.000000 0.000000 -3.352483 -1.941145 1.020516 10.676671 -9.575857 -0.889030 4.418667 -6.211954 0.071819 -0.322693 5.179300 0.051460 -8.823319 -2.977871 3.776717 -4.740196 -3.224263 6.674260 -43.809790 0.858394 29.791183 -76.519826 -45.201366 97.799154 -4.637838 -24.669007 -33.826028 8.601702 -1.561219 -14.584788 -9.484837 15.301973 -21.527789 -43.818362 33.151308 -37.892918 15.933347 -6.228689 23.958059 
0.119775 0.229582 0.999022 95.320695 0.742396 92.046246 9.177873 3.705996 -7.551239 -8.799802 -5.633122 20.851002 -0.974501 5.886652 -16.582879 0.000000 -0.000000 0.000000 -4.568485 -7.108759 -10.760152 6.831622 -0.766288 23.673372 5.873131 -10.900109 -13.004841 0.000000 -0.000000 0.000000 -2.795627 -2.308690 1.020936 9.519366 -9.442998 -0.586763 3.503506 -6.205341 0.343770 -0.111995 4.626572 -0.445264 -7.899119 -2.198795 3.722102 -6.517855 -2.629808 6.287376 -39.818535 1.348647 29.972853 -79.383974 -45.479343 99.227423 -4.677223 -24.766567 -33.237620 9.227416 -1.285492 -14.586058 -10.351016 14.769867 -20.839318 -42.601108 33.474149 -38.625656 14.855138 -6.324609 25.180174 
0.119881 0.229220 1.000417 95.057672 0.449796 91.747676 8.670244 3.732182 -6.547259 -8.535280 -6.283665 19.628456 -0.922732 6.673200 -16.151020 0.000000 -0.000000 0.000000 -4.612638 -7.123495 -10.052923 6.608046 0.158439 22.819493 5.910817 -11.584188 -12.711406 0.000000 -0.000000 0.000000 -2.341962 -2.573427 1.273481 8.276088 -9.071313 -0.309007 2.502529 -6.081812 0.617245 0.341107 3.982978 -1.311888 -6.899062 -1.482282 3.947956 -8.177564 -1.961498 6.051138 -35.660984 1.794683 30.156557 -82.475614 -45.948413 101.028179 -4.482402 -25.337715 -32.708092 9.684061 -0.844106 -14.067739 -11.550715 13.315870 -20.111708 -41.522105 33.554757 -39.473873 15.297918 -5.709258 24.779450 
0.120074 0.228516 1.001081 94.478341 0.085905 91.394489 8.163523 3.835433 -5.393622 -8.384483 -6.931346 18.350381 -0.806189 7.779774 -15.707632 0.000000 -0.000000 0.000000 -4.780246 -7.117327 -9.452512 6.499684 1.304547 22.200946 6.121950 -12.316470 -12.423043 0.000000 -0.000000 0.000000 -1.679895 -2.945575 1.545883 6.655938 -8.553980 0.011298 1.270733 -5.765567 0.990703 0.634300 3.183542 -1.949046 -5.316399 -0.639547 3.684043 -10.044286 -1.507332 5.545259 -30.610336 2.416636 30.589948 -86.291040 -46.286746 102.809145 -4.009589 -25.643790 -32.715932 9.866933 -0.244778 -13.010414 -12.593419 11.306073 -19.043747 -40.315675 33.821645 -40.610406 14.848839 -5.287524 24.590513 
0.119734 0.227522 1.001769 93.748804 -0.104821 91.245869 7.915646 3.932595 -4.517724 -8.261819 -7.296336 17.170568 -0.786953 8.718117 -15.152752 0.000000 -0.000000 0.000000 -4.749339 -6.961906 -9.104067 6.472017 2.389003 21.539882 6.417740 -12.997049 -12.176901 0.000000 -0.000000 0.000000 -0.911831 -3.386443 1.839297 5.110068 -7.903469 -0.237576 0.042882 -5.414656 1.539270 0.985348 2.510064 -2.142343 -3.687416 0.298839 3.190754 -11.458425 -0.836951 5.278175 -26.463033 2.896104 30.762479 -88.961260 -46.565346 103.973738 -3.733961 -26.002358 -32.306965 9.494246 0.086526 -11.598249 -13.303771 9.456585 -18.051447 -38.465847 34.099879 -41.014585 14.301128 -4.594030 23.608072 
0.118624 0.226688 1.003240 92.798529 -0.721335 91.200725 7.168892 1.747101 -3.338088 -7.921506 -5.797886 15.042422 -1.095604 10.930025 -13.745630 0.000000 -0.000000 0.000000 -5.283684 -6.002378 -8.873313 6.416975 2.934109 20.715548 6.197605 -13.792667 -11.444328 0.000000 -0.000000 0.000000 -0.975672 -3.097534 1.940574 3.975235 -7.539168 0.268481 -0.905504 -5.206945 1.214680 1.212087 2.244354 -0.647498 -2.160732 0.418802 0.473144 -12.624978 0.284289 6.349436 -23.294957 2.570381 29.990551 -90.808012 -47.327847 106.373225 -5.211865 -26.814834 -32.697123 8.940959 -1.489721 -9.284168 -13.741423 10.046640 -19.156819 -36.331931 33.917551 -38.661130 14.681659 -3.138598 20.923064 
0.118455 0.225845 1.003603 91.876114 -0.859136 91.031641 6.996215 1.538814 -2.415846 -7.739039 -5.486571 13.826193 -1.155964 11.882117 -13.266452 0.000000 -0.000000 0.000000 -5.324397 -5.689447 -8.616232 6.419595 3.748071 20.261991 6.254410 -14.047653 -11.191075 0.000000 -0.000000 0.000000 -0.615681 -3.099761 2.006993 2.946644 -7.063948 0.857079 -1.691827 -4.913800 1.154812 1.385278 1.727135 -0.309296 -1.150536 1.154604 -0.751283 -13.176667 0.539335 6.533196 -20.994239 3.021170 29.873008 -92.562174 -47.666789 107.600790 -4.608101 -27.020262 -32.880595 7.759050 -1.567809 -7.926437 -13.676134 8.946555 -18.709024 -35.033426 33.777476 -38.270383 14.547156 -2.512738 19.392780 
